<svg width="15" height="11" viewBox="0 0 15 11" fill="none" xmlns="http://www.w3.org/2000/svg">
<path d="M7.21875 3.36719C7.35938 3.22656 7.61719 3.22656 7.75781 3.36719L9.63281 5.24219C9.77344 5.38281 9.77344 5.64062 9.63281 5.78125C9.49219 5.92188 9.23438 5.92188 9.09375 5.78125L7.875 4.53906V8.125C7.875 8.33594 7.6875 8.5 7.5 8.5C7.28906 8.5 7.125 8.33594 7.125 8.125V4.53906L5.88281 5.78125C5.74219 5.92188 5.48438 5.92188 5.34375 5.78125C5.20312 5.64062 5.20312 5.38281 5.34375 5.24219L7.21875 3.36719ZM6.375 0.25C7.75781 0.25 9 0.953125 9.75 2.00781C10.0781 1.84375 10.4531 1.75 10.875 1.75C12.3047 1.75 13.5 2.94531 13.5 4.375C13.5 4.63281 13.4531 4.86719 13.3828 5.10156C14.3438 5.61719 15 6.60156 15 7.75C15 9.41406 13.6406 10.75 12 10.75H3.375C1.5 10.75 0 9.25 0 7.375C0 5.92188 0.9375 4.65625 2.25 4.21094C2.34375 2.00781 4.14844 0.25 6.375 0.25ZM6.375 1C4.54688 1 3.07031 2.42969 3 4.23438C2.97656 4.53906 2.78906 4.79688 2.48438 4.91406C1.47656 5.26562 0.75 6.25 0.75 7.375C0.75 8.82812 1.92188 10 3.375 10H12C13.2422 10 14.25 8.99219 14.25 7.75C14.25 6.90625 13.7578 6.15625 13.0312 5.78125C12.7266 5.59375 12.5625 5.24219 12.6562 4.89062C12.7031 4.72656 12.75 4.5625 12.75 4.375C12.75 3.34375 11.9062 2.5 10.875 2.5C10.5703 2.5 10.3125 2.57031 10.0547 2.6875C9.72656 2.85156 9.32812 2.73438 9.11719 2.45312C8.50781 1.58594 7.5 1 6.375 1Z" fill="white"/>
</svg>
