<svg width="12" height="13" viewBox="0 0 12 13" fill="none" xmlns="http://www.w3.org/2000/svg">
<path d="M12 6.5C12 9.82812 9.30469 12.5 6 12.5C2.67188 12.5 0 9.82812 0 6.5C0 3.19531 2.67188 0.5 6 0.5C9.30469 0.5 12 3.19531 12 6.5ZM2.01562 3.07812C1.21875 3.99219 0.75 5.1875 0.75 6.5C0.75 9.40625 3.09375 11.75 6 11.75C7.3125 11.75 8.50781 11.2812 9.42188 10.4844L2.01562 3.07812ZM11.25 6.5C11.25 3.61719 8.88281 1.25 6 1.25C4.66406 1.25 3.46875 1.74219 2.55469 2.53906L9.96094 9.94531C10.7578 9.03125 11.25 7.83594 11.25 6.5Z" fill="white"/>
</svg>
