<svg width="13" height="13" viewBox="0 0 13 13" fill="none" xmlns="http://www.w3.org/2000/svg">
<path d="M11.3438 8.25781L8.95312 7.22656C8.53125 7.0625 8.01562 7.17969 7.73438 7.55469L6.9375 8.49219C5.71875 7.8125 4.6875 6.78125 4.00781 5.5625L4.96875 4.78906C5.32031 4.48438 5.4375 3.96875 5.25 3.54688L4.24219 1.15625C4.03125 0.6875 3.51562 0.429688 3.02344 0.546875L0.820312 1.0625C0.328125 1.15625 0 1.57812 0 2.09375C0 7.83594 4.66406 12.5 10.4062 12.5C10.9219 12.5 11.3438 12.1719 11.4609 11.6797L11.9531 9.47656C12.0703 8.98438 11.8125 8.46875 11.3438 8.25781ZM10.7109 11.5156C10.6875 11.6562 10.5703 11.7734 10.4062 11.7734C5.08594 11.7734 0.75 7.41406 0.75 2.09375C0.75 1.92969 0.84375 1.8125 0.984375 1.78906L3.1875 1.27344C3.21094 1.27344 3.23438 1.25 3.25781 1.25C3.375 1.25 3.49219 1.34375 3.5625 1.46094L4.57031 3.82812C4.61719 3.96875 4.59375 4.10938 4.47656 4.20312L3.30469 5.16406C3.16406 5.28125 3.11719 5.46875 3.21094 5.63281C3.98438 7.20312 5.29688 8.51562 6.89062 9.28906C7.03125 9.38281 7.21875 9.33594 7.33594 9.19531L8.29688 8.02344C8.39062 7.90625 8.53125 7.88281 8.67188 7.92969L11.0391 8.9375C11.1797 9.00781 11.2734 9.14844 11.2266 9.3125L10.7109 11.5156Z" fill="white"/>
</svg>
