<svg width="14" height="13" viewBox="0 0 14 13" fill="none" xmlns="http://www.w3.org/2000/svg">
<path d="M13.0781 8.32812C12.8438 8.11719 12.5625 8.02344 12.2578 8.02344C11.9531 8.02344 11.6719 8.11719 11.4375 8.30469L10.0078 9.45312C9.96094 9.5 9.89062 9.5 9.84375 9.5H8.85938C8.97656 9.28906 9.02344 9.03125 8.97656 8.75C8.88281 8.09375 8.27344 7.625 7.61719 7.625H4.24219C3.75 7.625 3.30469 7.78906 2.88281 8.09375L1.99219 8.75H0.375C0.164062 8.75 0 8.9375 0 9.125C0 9.33594 0.164062 9.5 0.351562 9.5H2.22656L3.30469 8.65625C3.58594 8.46875 3.89062 8.375 4.21875 8.375H7.66406C7.96875 8.375 8.22656 8.60938 8.22656 8.9375C8.22656 9.24219 7.96875 9.5 7.66406 9.5H5.60156C5.39062 9.5 5.22656 9.66406 5.22656 9.875C5.22656 10.0625 5.39062 10.25 5.60156 10.25H9.82031C10.0312 10.25 10.2656 10.1562 10.4297 10.0156L11.8828 8.86719C11.9766 8.79688 12.1172 8.75 12.2344 8.75C12.3516 8.75 12.4688 8.79688 12.5391 8.86719C12.7969 9.07812 12.7734 9.45312 12.5391 9.64062L10.1719 11.5156C9.98438 11.6562 9.77344 11.75 9.53906 11.75H0.375C0.164062 11.75 0 11.9141 0 12.125C0 12.3125 0.164062 12.5 0.351562 12.5H9.53906C9.9375 12.5 10.3125 12.3828 10.6406 12.125L13.0078 10.2266C13.2891 10.0156 13.4531 9.66406 13.4531 9.28906C13.5 8.9375 13.3359 8.58594 13.0781 8.32812ZM6.44531 4.97656C6.28125 4.95312 6.14062 4.92969 5.55469 4.71875C5.34375 4.64844 5.13281 4.76562 5.0625 4.95312C5.01562 5.14062 5.10938 5.35156 5.29688 5.42188C6 5.65625 6.16406 5.70312 6.35156 5.72656V6.125C6.35156 6.33594 6.53906 6.5 6.75 6.5C6.9375 6.5 7.10156 6.33594 7.10156 6.125V5.75C7.80469 5.65625 8.29688 5.28125 8.41406 4.71875C8.60156 3.61719 7.54688 3.33594 6.84375 3.14844L6.65625 3.10156C5.85938 2.86719 5.76562 2.72656 5.8125 2.44531C5.88281 2.04688 6.46875 1.95312 7.00781 2.04688C7.17188 2.07031 7.35938 2.11719 7.61719 2.1875C7.80469 2.25781 8.01562 2.14062 8.08594 1.95312C8.15625 1.76562 8.03906 1.55469 7.85156 1.48438C7.54688 1.39062 7.3125 1.32031 7.125 1.29688V0.875C7.125 0.6875 6.9375 0.5 6.75 0.5C6.53906 0.5 6.35156 0.6875 6.35156 0.875V1.27344C5.67188 1.36719 5.17969 1.74219 5.0625 2.30469C4.875 3.38281 5.95312 3.6875 6.46875 3.82812L6.63281 3.875C7.52344 4.10938 7.73438 4.25 7.66406 4.57812C7.59375 4.97656 7.00781 5.07031 6.44531 4.97656Z" fill="white"/>
</svg>
