<svg width="16" height="16" viewBox="0 0 16 16" fill="none" xmlns="http://www.w3.org/2000/svg">
<path d="M10.5401 2C10.8288 2.00139 11.1107 2.08839 11.3501 2.25C11.6087 2.43636 11.7949 2.70653 11.8769 3.01462C11.959 3.3227 11.9318 3.64968 11.8001 3.94L10.8301 6.11L13.6201 6.11C13.8491 6.10573 14.0756 6.15941 14.2784 6.26605C14.4812 6.37269 14.6537 6.52884 14.7801 6.72C14.9071 6.9138 14.9821 7.13704 14.9978 7.36822C15.0136 7.5994 14.9696 7.83075 14.8701 8.04C14.2001 9.49 13.0001 12.11 12.6001 13.21C12.5023 13.4735 12.3264 13.7009 12.0958 13.8618C11.8653 14.0226 11.5912 14.1092 11.3101 14.11L2.38006 14.11C2.01223 14.1047 1.66125 13.9549 1.40301 13.6929C1.14477 13.431 1.00002 13.0779 1.00006 12.71L1.00006 9.2C1.00006 9.01878 1.03575 8.83933 1.1051 8.6719C1.17446 8.50447 1.27611 8.35234 1.40425 8.22419C1.5324 8.09605 1.68453 7.9944 1.85196 7.92505C2.01938 7.85569 2.19883 7.82 2.38006 7.82L3.76006 7.82L9.60006 2.36C9.85843 2.12844 10.1931 2.00026 10.5401 2V2ZM11.3101 13.11C11.3882 13.1092 11.4643 13.0849 11.5285 13.0404C11.5927 12.9958 11.642 12.9329 11.6701 12.86C12.0701 11.77 13.1401 9.41 14.0001 7.62C14.029 7.56441 14.0441 7.50267 14.0441 7.44C14.0441 7.37733 14.029 7.31559 14.0001 7.26C13.9584 7.20045 13.9002 7.15447 13.8326 7.1278C13.7651 7.10113 13.6911 7.09494 13.6201 7.11L10.3201 7.11L9.80006 6.43L9.80006 5.97L10.8901 3.53C10.9263 3.45034 10.9331 3.36041 10.9093 3.27619C10.8855 3.19197 10.8326 3.11892 10.7601 3.07C10.6923 3.01477 10.6075 2.98462 10.5201 2.98462C10.4326 2.98462 10.3479 3.01477 10.2801 3.07L4.22006 8.66L3.75006 8.79L2.38006 8.79C2.32753 8.78984 2.27553 8.80056 2.22736 8.82151C2.17918 8.84245 2.13588 8.87316 2.10017 8.91169C2.06446 8.95021 2.03713 8.99573 2.0199 9.04535C2.00267 9.09498 1.99591 9.14763 2.00006 9.2L2.00006 12.71C1.99993 12.8127 2.03932 12.9115 2.11006 12.986C2.1808 13.0605 2.27748 13.1049 2.38006 13.11L11.3101 13.11Z" fill="white"/>
</svg>
