<svg width="12" height="13" viewBox="0 0 12 13" fill="none" xmlns="http://www.w3.org/2000/svg">
<path d="M3.9375 6.5C3.9375 5.375 4.85156 4.4375 6 4.4375C7.125 4.4375 8.0625 5.375 8.0625 6.5C8.0625 7.64844 7.125 8.5625 6 8.5625C4.85156 8.5625 3.9375 7.64844 3.9375 6.5ZM6 5.1875C5.27344 5.1875 4.6875 5.79688 4.6875 6.5C4.6875 7.22656 5.27344 7.8125 6 7.8125C6.70312 7.8125 7.3125 7.22656 7.3125 6.5C7.3125 5.79688 6.70312 5.1875 6 5.1875ZM1.52344 5.91406L0.585938 5.04688C0.328125 4.8125 0.257812 4.4375 0.445312 4.13281L1.14844 2.89062C1.3125 2.58594 1.6875 2.44531 2.01562 2.5625L3.23438 2.9375C3.5625 2.70312 3.91406 2.49219 4.26562 2.35156L4.54688 1.10938C4.61719 0.757812 4.92188 0.5 5.27344 0.5H6.70312C7.05469 0.5 7.35938 0.757812 7.42969 1.10938L7.71094 2.35156C8.0625 2.49219 8.41406 2.70312 8.74219 2.9375L9.96094 2.5625C10.2891 2.44531 10.6641 2.58594 10.8281 2.89062L11.5312 4.13281C11.7188 4.4375 11.6484 4.8125 11.3906 5.04688L10.4531 5.91406C10.4766 6.10156 10.5 6.3125 10.5 6.5C10.5 6.71094 10.4766 6.92188 10.4531 7.10938L11.3906 7.97656C11.6484 8.21094 11.7188 8.58594 11.5312 8.89062L10.8281 10.1328C10.6641 10.4375 10.2891 10.5781 9.96094 10.4609L8.74219 10.0859C8.41406 10.3203 8.0625 10.5078 7.71094 10.6719L7.42969 11.9141C7.35938 12.2656 7.05469 12.5 6.70312 12.5H5.27344C4.92188 12.5 4.61719 12.2656 4.54688 11.9141L4.26562 10.6719C3.91406 10.5078 3.5625 10.3203 3.23438 10.0859L2.01562 10.4609C1.6875 10.5781 1.3125 10.4375 1.14844 10.1328L0.445312 8.89062C0.257812 8.58594 0.328125 8.21094 0.585938 7.97656L1.52344 7.10938C1.5 6.92188 1.5 6.71094 1.5 6.5C1.5 6.3125 1.5 6.10156 1.52344 5.91406ZM3.70312 3.54688L3.39844 3.78125L1.80469 3.26562L1.07812 4.50781L2.32031 5.63281L2.27344 6.00781C2.25 6.17188 2.25 6.33594 2.25 6.5C2.25 6.6875 2.25 6.85156 2.27344 7.01562L2.32031 7.39062L1.07812 8.51562L1.80469 9.75781L3.39844 9.24219L3.70312 9.47656C3.96094 9.6875 4.24219 9.85156 4.57031 9.96875L4.92188 10.1328L5.27344 11.75H6.70312L7.05469 10.1328L7.40625 9.96875C7.73438 9.85156 8.01562 9.6875 8.27344 9.47656L8.57812 9.24219L10.1719 9.75781L10.8984 8.51562L9.65625 7.39062L9.70312 7.01562C9.72656 6.85156 9.75 6.6875 9.75 6.5C9.75 6.33594 9.72656 6.17188 9.70312 6.00781L9.65625 5.63281L10.8984 4.50781L10.1719 3.26562L8.57812 3.78125L8.27344 3.54688C8.01562 3.33594 7.73438 3.17188 7.40625 3.03125L7.05469 2.89062L6.70312 1.25H5.27344L4.92188 2.89062L4.57031 3.03125C4.24219 3.17188 3.96094 3.33594 3.70312 3.54688Z" fill="white"/>
</svg>
