<svg width="17" height="11" viewBox="0 0 17 11" fill="none" xmlns="http://www.w3.org/2000/svg">
<path d="M5.05469 2.59375C6.20312 1.42188 8.10156 1.42188 9.27344 2.59375C10.3984 3.69531 10.4453 5.47656 9.4375 6.67188L9.29688 6.8125C9.15625 6.97656 8.92188 7 8.78125 6.85938C8.61719 6.71875 8.59375 6.48438 8.73438 6.32031L8.85156 6.17969C9.625 5.28906 9.57812 3.95312 8.75781 3.13281C7.86719 2.24219 6.46094 2.24219 5.57031 3.13281L2.66406 6.03906C1.77344 6.92969 1.77344 8.33594 2.66406 9.22656C3.53125 10.0938 4.96094 10.0938 5.82812 9.22656L6.36719 8.6875C6.50781 8.54688 6.74219 8.54688 6.90625 8.6875C7.04688 8.82812 7.04688 9.08594 6.90625 9.22656L6.36719 9.74219C5.19531 10.9141 3.29688 10.9141 2.125 9.74219C0.953125 8.57031 0.953125 6.67188 2.125 5.5L5.05469 2.59375ZM11.9219 8.42969C10.7734 9.60156 8.875 9.60156 7.70312 8.42969C6.57812 7.32812 6.53125 5.54688 7.53906 4.35156L7.67969 4.21094C7.82031 4.04688 8.05469 4.02344 8.19531 4.16406C8.35938 4.30469 8.38281 4.53906 8.24219 4.70312L8.125 4.84375C7.35156 5.73438 7.39844 7.07031 8.21875 7.89062C9.10938 8.78125 10.5156 8.78125 11.4062 7.89062L14.3125 4.98438C15.2031 4.09375 15.2031 2.6875 14.3125 1.79688C13.4453 0.929688 12.0156 0.929688 11.1484 1.79688L10.6094 2.33594C10.4688 2.47656 10.2344 2.47656 10.0703 2.33594C9.92969 2.17188 9.92969 1.9375 10.0703 1.79688L10.6094 1.25781C11.7812 0.0859375 13.6797 0.0859375 14.8516 1.25781C16.0234 2.42969 16.0234 4.32812 14.8516 5.5L11.9219 8.42969Z" fill="white"/>
</svg>
