<svg width="15" height="11" viewBox="0 0 15 11" fill="none" xmlns="http://www.w3.org/2000/svg">
<path d="M0 7V1.75C0 0.929688 0.65625 0.25 1.5 0.25H9C9.82031 0.25 10.5 0.929688 10.5 1.75V7C10.5 7.84375 9.82031 8.5 9 8.5H6.70312L7.19531 10H8.625C8.8125 10 9 10.1875 9 10.375C9 10.5859 8.8125 10.75 8.625 10.75H1.875C1.66406 10.75 1.5 10.5859 1.5 10.375C1.5 10.1875 1.66406 10 1.875 10H3.28125L3.77344 8.5H1.5C0.65625 8.5 0 7.84375 0 7ZM9 1H1.5C1.07812 1 0.75 1.35156 0.75 1.75V7C0.75 7.42188 1.07812 7.75 1.5 7.75H9C9.39844 7.75 9.75 7.42188 9.75 7V1.75C9.75 1.35156 9.39844 1 9 1ZM6.39844 10L5.90625 8.5H4.57031L4.07812 10H6.39844ZM12.5625 7.375C12.5625 7.07031 12.7969 6.8125 13.125 6.8125C13.4297 6.8125 13.6875 7.07031 13.6875 7.375C13.6875 7.70312 13.4297 7.9375 13.125 7.9375C12.7969 7.9375 12.5625 7.70312 12.5625 7.375ZM11.25 1.375C11.25 0.765625 11.7422 0.25 12.375 0.25H13.875C14.4844 0.25 15 0.765625 15 1.375V9.625C15 10.2578 14.4844 10.75 13.875 10.75H12.375C11.7422 10.75 11.25 10.2578 11.25 9.625V1.375ZM12 1.375V2.5H14.25V1.375C14.25 1.1875 14.0625 1 13.875 1H12.375C12.1641 1 12 1.1875 12 1.375ZM12 3.25V4H14.25V3.25H12ZM12.375 10H13.875C14.0625 10 14.25 9.83594 14.25 9.625V4.75H12V9.625C12 9.83594 12.1641 10 12.375 10Z" fill="white"/>
</svg>
