<svg width="11" height="13" viewBox="0 0 11 13" fill="none" xmlns="http://www.w3.org/2000/svg">
<path d="M10.5 9.125V1.625C10.5 1.01562 9.98438 0.5 9.375 0.5H1.875C0.820312 0.5 0 1.34375 0 2.375V11C0 11.8438 0.65625 12.5 1.5 12.5H10.125C10.3125 12.5 10.5 12.3359 10.5 12.125C10.5 11.9375 10.3125 11.75 10.125 11.75H9.75V10.2031C10.1719 10.0391 10.5 9.61719 10.5 9.125ZM0.75 2.375C0.75 1.76562 1.24219 1.25 1.875 1.25H2.25V9.5H1.5C1.21875 9.5 0.960938 9.59375 0.75 9.71094V2.375ZM9 11.75H1.5C1.07812 11.75 0.75 11.4219 0.75 11C0.75 10.6016 1.07812 10.25 1.5 10.25H9V11.75ZM9.375 9.5H3V1.25H9.375C9.5625 1.25 9.75 1.4375 9.75 1.625V9.125C9.75 9.33594 9.5625 9.5 9.375 9.5ZM8.25 3.5H4.5C4.28906 3.5 4.125 3.6875 4.125 3.875C4.125 4.08594 4.28906 4.25 4.5 4.25H8.25C8.4375 4.25 8.625 4.08594 8.625 3.875C8.625 3.6875 8.4375 3.5 8.25 3.5ZM8.25 5.75H4.5C4.28906 5.75 4.125 5.9375 4.125 6.125C4.125 6.33594 4.28906 6.5 4.5 6.5H8.25C8.4375 6.5 8.625 6.33594 8.625 6.125C8.625 5.9375 8.4375 5.75 8.25 5.75Z" fill="white"/>
</svg>
