<svg width="12" height="11" viewBox="0 0 12 11" fill="none" xmlns="http://www.w3.org/2000/svg">
<path d="M5.69531 0.273438C2.46094 0.4375 0 3.20312 0 6.4375V9.25C0 10.0938 0.65625 10.75 1.5 10.75H2.25C2.64844 10.75 3 10.4219 3 10V6.25C3 5.85156 2.64844 5.5 2.25 5.5H1.5C1.24219 5.5 1.00781 5.57031 0.796875 5.6875C1.125 3.17969 3.14062 1.14062 5.71875 1.02344C8.55469 0.882812 10.9219 2.99219 11.2031 5.71094C10.9922 5.59375 10.7578 5.5 10.5 5.5H9.75C9.32812 5.5 9 5.85156 9 6.25V10C9 10.4219 9.32812 10.75 9.75 10.75H10.5C11.3203 10.75 12 10.0938 12 9.25V6.25C12 2.85156 9.14062 0.109375 5.69531 0.273438ZM1.5 6.25H2.25V10H1.5C1.07812 10 0.75 9.67188 0.75 9.25V7.02344C0.75 6.60156 1.07812 6.25 1.5 6.25ZM11.25 9.25C11.25 9.67188 10.8984 10 10.5 10H9.75V6.25H10.5C10.8984 6.25 11.25 6.60156 11.25 7.02344V9.25Z" fill="white"/>
</svg>
